<svg xmlns="http://www.w3.org/2000/svg" width="14" height="14" viewBox="0 0 14 14" fill="none">
    <path
        d="M1 7.75069C0.999921 7.31346 1.35434 6.95889 1.79156 6.95889L12.8746 6.95825C13.3118 6.95825 13.6662 7.31259 13.6663 7.74982C13.6664 8.18704 13.312 8.54162 12.8747 8.54162L1.79172 8.54225C1.3545 8.54233 1.00008 8.18791 1 7.75069Z"
        fill="black"/>
    <path
        d="M1 3.79244C0.999921 3.35521 1.35434 3.00063 1.79156 3.00063L12.8746 3C13.3118 3 13.6662 3.35434 13.6663 3.79157C13.6664 4.22879 13.312 4.58337 12.8747 4.58337L1.79172 4.584C1.3545 4.58408 1.00008 4.22966 1 3.79244Z"
        fill="black"/>
    <path
        d="M1 11.7089C0.999921 11.2717 1.35434 10.9171 1.79156 10.9171L12.8746 10.9165C13.3118 10.9165 13.6662 11.2708 13.6663 11.7081C13.6664 12.1453 13.312 12.4999 12.8747 12.4999L1.79172 12.5005C1.3545 12.5006 1.00008 12.1462 1 11.7089Z"
        fill="black"/>
</svg>
