<svg xmlns="http://www.w3.org/2000/svg" width="14" height="14" viewBox="0 0 14 14" fill="none">
  <path fill-rule="evenodd" clip-rule="evenodd" d="M13.9981 12.6762C13.9789 12.3889 13.836 12.1222 13.6061 11.9468L10.3376 9.4475C10.1932 9.33698 10.1637 9.13361 10.2698 8.98625C10.9432 8.05342 11.3411 6.90842 11.3411 5.67056C11.3411 2.54055 8.80057 0 5.67056 0C2.54055 0 0 2.54055 0 5.67056C0 8.80057 2.54055 11.3411 5.67056 11.3411C6.90842 11.3411 8.05344 10.9432 8.98625 10.2698C9.13361 10.1637 9.33698 10.1932 9.4475 10.3376L11.9468 13.6061C12.1222 13.836 12.3889 13.9789 12.6762 13.9981C12.9636 14.0158 13.2465 13.9097 13.4499 13.7063L13.7063 13.4499C13.9097 13.2465 14.0158 12.9636 13.9981 12.6762ZM5.67056 10.0252C3.26706 10.0252 1.31596 8.07407 1.31596 5.67056C1.31596 3.26705 3.26706 1.31595 5.67056 1.31595C8.07407 1.31595 10.0252 3.26705 10.0252 5.67056C10.0252 8.07407 8.07407 10.0252 5.67056 10.0252Z" fill="#10141C"/>
</svg>
