<svg xmlns="http://www.w3.org/2000/svg" width="16" height="16" viewBox="0 0 16 16" fill="none">
    <path fill-rule="evenodd" clip-rule="evenodd"
          d="M15.9978 14.4871C15.9759 14.1587 15.8126 13.8539 15.5498 13.6535L11.8144 10.7971C11.6493 10.6708 11.6156 10.4384 11.7369 10.27C12.5066 9.20391 12.9613 7.89534 12.9613 6.48064C12.9613 2.90349 10.0578 0 6.48064 0C2.90349 0 0 2.90349 0 6.48064C0 10.0578 2.90349 12.9613 6.48064 12.9613C7.89534 12.9613 9.20393 12.5066 10.27 11.7369C10.4384 11.6156 10.6708 11.6493 10.7971 11.8144L13.6535 15.5498C13.8539 15.8126 14.1587 15.9759 14.4871 15.9978C14.8155 16.018 15.1389 15.8968 15.3713 15.6644L15.6644 15.3713C15.8968 15.1389 16.018 14.8155 15.9978 14.4871ZM6.48064 11.4573C3.73378 11.4573 1.50395 9.22751 1.50395 6.48064C1.50395 3.73377 3.73378 1.50394 6.48064 1.50394C9.2275 1.50394 11.4573 3.73377 11.4573 6.48064C11.4573 9.22751 9.2275 11.4573 6.48064 11.4573Z"
          fill="#10141C" fill-opacity="0.64"/>
</svg>
